<svg xmlns="http://www.w3.org/2000/svg" width="191.01" height="11.173" viewBox="0 0 191.01 11.173">
  <g id="Group_132169" data-name="Group 132169" transform="translate(0 -11.172)">
    <g id="Group_117968" data-name="Group 117968">
      <path id="Path_48349" data-name="Path 48349" d="M108.649,23.49a1.323,1.323,0,0,0-1.54-.214l-2.911,1.47a16.326,16.326,0,0,1-14.656,0l-5.948-3a18.8,18.8,0,0,0-16.94,0l-5.947,3-.058.029a13.8,13.8,0,0,1-12.289,0l-.058-.029-5.948-3a18.793,18.793,0,0,0-16.939,0l-5.948,3a16.326,16.326,0,0,1-14.656,0L1.9,23.275A1.322,1.322,0,0,0,.36,23.49a1.267,1.267,0,0,0-.025,1.744C.4,25.307,5.67,30.9,13.359,30.9a16.809,16.809,0,0,0,7.25-1.691l5.947-3a16.265,16.265,0,0,1,14.657,0l5.947,3,.126.055c.2.074.393.138.589.2A17.021,17.021,0,0,0,54.6,30.9a16.813,16.813,0,0,0,7.25-1.691l5.947-3a16.265,16.265,0,0,1,14.657,0l5.947,3,.129.056a20.032,20.032,0,0,0,7.033,1.318,19.185,19.185,0,0,0,13.111-5.347,1.267,1.267,0,0,0-.024-1.745" transform="translate(0.001 -8.554)" fill="#27aae1"/>
    </g>
    <g id="Group_117969" data-name="Group 117969" transform="translate(82)">
      <path id="Path_48349-2" data-name="Path 48349" d="M108.649,23.49a1.323,1.323,0,0,0-1.54-.214l-2.911,1.47a16.326,16.326,0,0,1-14.656,0l-5.948-3a18.8,18.8,0,0,0-16.94,0l-5.947,3-.058.029a13.8,13.8,0,0,1-12.289,0l-.058-.029-5.948-3a18.793,18.793,0,0,0-16.939,0l-5.948,3a16.326,16.326,0,0,1-14.656,0L1.9,23.275A1.322,1.322,0,0,0,.36,23.49a1.267,1.267,0,0,0-.025,1.744C.4,25.307,5.67,30.9,13.359,30.9a16.809,16.809,0,0,0,7.25-1.691l5.947-3a16.265,16.265,0,0,1,14.657,0l5.947,3,.126.055c.2.074.393.138.589.2A17.021,17.021,0,0,0,54.6,30.9a16.813,16.813,0,0,0,7.25-1.691l5.947-3a16.265,16.265,0,0,1,14.657,0l5.947,3,.129.056a20.032,20.032,0,0,0,7.033,1.318,19.185,19.185,0,0,0,13.111-5.347,1.267,1.267,0,0,0-.024-1.745" transform="translate(0.001 -8.554)" fill="#27aae1"/>
    </g>
  </g>
</svg>
